<svg style="position: absolute; width: 0; height: 0;" width="0" height="0" version="1.1" xmlns="http://www.w3.org/2000/svg" xmlns:xlink="http://www.w3.org/1999/xlink">
	<defs>

		<symbol id="icon_close" viewBox="0 0 22 28">
			<title>close</title>
			<path d="M20.281 20.656c0 0.391-0.156 0.781-0.438 1.062l-2.125 2.125c-0.281 0.281-0.672 0.438-1.062 0.438s-0.781-0.156-1.062-0.438l-4.594-4.594-4.594 4.594c-0.281 0.281-0.672 0.438-1.062 0.438s-0.781-0.156-1.062-0.438l-2.125-2.125c-0.281-0.281-0.438-0.672-0.438-1.062s0.156-0.781 0.438-1.062l4.594-4.594-4.594-4.594c-0.281-0.281-0.438-0.672-0.438-1.062s0.156-0.781 0.438-1.062l2.125-2.125c0.281-0.281 0.672-0.438 1.062-0.438s0.781 0.156 1.062 0.438l4.594 4.594 4.594-4.594c0.281-0.281 0.672-0.438 1.062-0.438s0.781 0.156 1.062 0.438l2.125 2.125c0.281 0.281 0.438 0.672 0.438 1.062s-0.156 0.781-0.438 1.062l-4.594 4.594 4.594 4.594c0.281 0.281 0.438 0.672 0.438 1.062z"></path>
		</symbol>

		<symbol id="icon-login" viewBox="0 0 56 56">
			<title>login</title>
			<path d="M25.293,39.293c-0.391,0.391-0.391,1.023,0,1.414C25.488,40.902,25.744,41,26,41s0.512-0.098,0.707-0.293l11.999-11.999 c0.093-0.092,0.166-0.203,0.217-0.326c0.101-0.244,0.101-0.519,0-0.764c-0.051-0.123-0.125-0.234-0.217-0.327L26.707,15.293 c-0.391-0.391-1.023-0.391-1.414,0s-0.391,1.023,0,1.414L35.586,27H5c-0.553,0-1,0.447-1,1s0.447,1,1,1h30.586L25.293,39.293z"></path>
			<path d="M51,0H14c-0.553,0-1,0.447-1,1v21c0,0.553,0.447,1,1,1s1-0.447,1-1V2h35v52H15V34c0-0.553-0.447-1-1-1s-1,0.447-1,1v21 c0,0.553,0.447,1,1,1h37c0.553,0,1-0.447,1-1V1C52,0.447,51.553,0,51,0z"></path>
		</symbol>

		<symbol id="icon-user" viewBox="0 0 316.824 316.824">
			<title>user</title>
			<path d="M213.31,185.877l-0.81-0.366c-1.934-0.88-3.882-1.71-5.868-2.487c-2.166-0.868-4.364-1.671-6.594-2.423 c-1.761-0.578-3.535-1.118-5.328-1.645c-2.731-0.79-5.489-1.504-8.329-2.134c-0.964-0.199-1.947-0.392-2.924-0.566l-0.668-0.129 c-1.677-0.328-3.361-0.617-5.064-0.868l-0.488-0.077c-0.019,0-0.032-0.013-0.051-0.013l-0.488-0.064 c-1.414-0.212-2.821-0.411-4.287-0.578l-4.987-0.411c-6.131-0.405-12.449-0.392-18.509,0.051l-1.767,0.148l-0.823,0.064 l-2.063,0.186c-1.896,0.199-3.779,0.463-5.662,0.765l-0.553,0.077c-1.285,0.212-2.571,0.45-3.837,0.688 c-1.407,0.251-2.796,0.527-4.184,0.829c-2.686,0.604-5.354,1.292-7.937,2.044c-2.057,0.591-4.087,1.24-5.996,1.896l-1.324,0.476 c-4.049,1.433-8.072,3.078-11.967,4.884l-1.041,0.495l-0.019,0.026c-45.547,21.8-74.918,68.247-74.918,118.646 c0,1.157,0.077,2.294,0.148,3.438l0.341,7.995H289.5l0.353-7.905c0.077-1.17,0.148-2.333,0.148-3.528 C290.001,254.188,259.917,207.33,213.31,185.877z M39.682,303.97c0.553-45.251,27.308-86.762,68.086-105.882l1.311-0.514 l0.154-0.148c3.194-1.459,6.491-2.789,9.833-3.965l1.06-0.379c1.819-0.63,3.631-1.208,5.514-1.742 c2.346-0.688,4.737-1.305,7.134-1.844c1.24-0.263,2.481-0.514,3.76-0.752c1.015-0.186,2.024-0.379,3.046-0.54l0.501-0.09 c1.838-0.289,3.683-0.553,5.521-0.752l4.203-0.366c5.501-0.405,10.765-0.463,17.14,0l4.087,0.341 c1.009,0.116,2.018,0.251,3.246,0.424l1.472,0.212c1.536,0.225,3.072,0.488,4.614,0.778l0.72,0.135 c0.868,0.161,1.729,0.328,2.545,0.501c2.532,0.553,5.019,1.208,7.487,1.922c1.632,0.476,3.252,0.964,4.833,1.491 c2.005,0.668,3.985,1.395,5.945,2.172c1.883,0.739,3.74,1.53,5.578,2.372l0.321,0.148c41.704,19.133,68.786,60.779,69.339,106.467 H39.682V303.97z M126.644,157.599c0.964,0.405,1.96,0.758,2.956,1.112l2.089,0.758c0.803,0.308,1.613,0.611,2.436,0.868 c7.661,2.41,15.675,3.65,23.824,3.715l0.649,0.013c2.796,0,5.598-0.148,8.284-0.424c0.925-0.09,1.825-0.238,2.731-0.392 l2.012-0.302c1.131-0.148,2.262-0.315,3.445-0.546c0.81-0.167,1.594-0.379,2.378-0.591l2.198-0.559 c1.086-0.263,2.172-0.527,3.246-0.861c0.668-0.212,1.324-0.456,1.973-0.701l1.767-0.636c1.26-0.437,2.532-0.887,3.805-1.42 c0.495-0.212,0.977-0.443,1.452-0.675l0.572-0.283c1.742-0.778,3.477-1.575,5.199-2.5l1.118-0.668 c1.928-1.093,3.85-2.224,5.797-3.554c1.009-0.681,1.973-1.446,2.924-2.204l3.291-2.558c18.921-15.662,29.795-38.645,29.795-62.482 l0.039-0.681c0-45.232-36.8-82.026-82.032-82.026c-43.175,0-79.095,33.76-81.775,76.859l-0.071,1.067 c-0.103,1.356-0.186,2.712-0.186,4.1C76.547,115.066,96.207,144.726,126.644,157.599z M89.561,78.819l0.077-1.157 c2.262-36.344,32.545-64.808,68.947-64.808c38.15,0,69.178,31.029,69.211,68.587l-0.039,0.675 c-0.026,20.579-9.203,39.956-25.238,53.266l-3.053,2.327c-0.681,0.553-1.369,1.105-2.224,1.697 c-1.542,1.048-3.175,1.992-4.833,2.931l-0.919,0.559c-1.388,0.746-2.847,1.407-4.364,2.082l-1.703,0.823 c-0.977,0.405-2.005,0.758-3.021,1.112l-2.121,0.765c-0.411,0.154-0.829,0.321-1.234,0.443c-0.79,0.244-1.6,0.431-2.404,0.63 l-2.564,0.656c-0.553,0.148-1.099,0.302-1.587,0.405c-0.855,0.167-1.729,0.283-2.596,0.405l-2.442,0.366 c-0.591,0.103-1.183,0.206-1.845,0.27c-2.14,0.225-4.293,0.347-6.478,0.366l-0.604-0.006h-0.013 c-7.037-0.006-13.946-1.054-20.553-3.123c-0.572-0.18-1.131-0.405-1.69-0.617l-2.416-0.88c-0.752-0.264-1.497-0.521-2.217-0.823 C105.982,134.919,89.4,109.892,89.4,82.032C89.4,80.946,89.484,79.879,89.561,78.819z"></path>
		</symbol>

		<symbol id="icon-cart" viewBox="0 0 512 512">
			<title>cart</title>
			<polygon points="311.2,365.5 63,365.5 11,126.7 250.7,126.7 250.7,146.5 36.5,146.5 79.9,345.7 296.3,345.7 416.2,11 501,11 501,31.9 431,31.9 "></polygon>
			<path d="m262.4,501c-29.7,0-54.1-24-54.1-54.2 0-30.2 24.4-54.2 54.1-54.2s54.1,24 54.1,54.2c0,30.2-24.4,54.2-54.1,54.2zm0-87.6c-19.1,0-33.9,15.6-33.9,33.4 0,18.8 14.8,33.4 33.9,33.4s33.9-15.6 33.9-33.4c5.68434e-14-18.8-15.9-33.4-33.9-33.4z"></path>
			<path d="m108.6,501c-29.7,0-54.1-24-54.1-54.2 0-30.2 24.4-54.2 54.1-54.2s54.1,24 54.1,54.2c0,30.2-24.4,54.2-54.1,54.2zm0-87.6c-19.1,0-33.9,15.6-33.9,33.4 0,18.8 14.8,33.4 33.9,33.4s33.9-15.6 33.9-33.4c-1-18.8-15.9-33.4-33.9-33.4z"></path>
		</symbol>

		<symbol id="icon-search" viewBox="0 0 52.966 52.966">
			<title>search</title>
			<path d="M51.704,51.273L36.845,35.82c3.79-3.801,6.138-9.041,6.138-14.82c0-11.58-9.42-21-21-21s-21,9.42-21,21s9.42,21,21,21 c5.083,0,9.748-1.817,13.384-4.832l14.895,15.491c0.196,0.205,0.458,0.307,0.721,0.307c0.25,0,0.499-0.093,0.693-0.279 C52.074,52.304,52.086,51.671,51.704,51.273z M21.983,40c-10.477,0-19-8.523-19-19s8.523-19,19-19s19,8.523,19,19 S32.459,40,21.983,40z"></path>
		</symbol>

		<symbol id="icon-facebook" viewBox="0 0 455 455">
			<title>facebook</title>
			<path d="M0,0v455h455V0H0z M301.004,125.217H265.44 c-7.044,0-14.153,7.28-14.153,12.696v36.264h49.647c-1.999,27.807-6.103,53.235-6.103,53.235h-43.798V385h-65.266V227.395h-31.771 v-53.029h31.771v-43.356c0-7.928-1.606-61.009,66.872-61.009h48.366V125.217z"></path>
		</symbol>

		<symbol id="icon-vk" viewBox="0 0 455 455">
			<title>vk</title>
			<path d="M0,0v455h455V0H0z M341.098,251.727c10.445,10.19,21.49,19.784,30.865,31.049 c4.142,4.978,8.06,10.113,11.046,15.881c4.239,8.264,0.397,17.318-6.985,17.817l-45.875-0.02 c-11.841,0.973-21.277-3.801-29.235-11.902c-6.328-6.45-12.243-13.354-18.352-20.023c-2.486-2.746-5.115-5.314-8.239-7.362 c-6.267-4.061-11.703-2.828-15.285,3.699c-3.643,6.649-4.499,14.031-4.835,21.435c-0.499,10.807-3.76,13.634-14.607,14.154 c-23.208,1.075-45.218-2.451-65.659-14.134c-18.052-10.307-32.022-24.879-44.184-41.356 c-23.702-32.124-41.855-67.391-58.154-103.673c-3.684-8.177-0.993-12.559,7.999-12.717c14.99-0.296,29.974-0.26,44.943-0.02 c6.089,0.102,10.129,3.582,12.458,9.334c8.101,19.906,18.01,38.85,30.448,56.427c3.327,4.677,6.71,9.334,11.504,12.636 c5.314,3.663,9.375,2.466,11.881-3.485c1.595-3.78,2.293-7.8,2.629-11.841c1.192-13.833,1.335-27.681-0.718-41.473 c-1.274-8.621-6.149-14.195-14.745-15.825c-4.382-0.836-3.725-2.446-1.615-4.958c3.704-4.315,7.189-7.006,14.093-7.006h51.847 c8.177,1.595,10.011,5.278,11.122,13.497l0.041,57.619c-0.097,3.184,1.595,12.615,7.306,14.704 c4.575,1.513,7.622-2.171,10.368-5.075c12.417-13.176,21.277-28.756,29.194-44.877c3.505-7.087,6.532-14.449,9.477-21.817 c2.17-5.452,5.553-8.137,11.703-8.04l49.916,0.061c1.472,0,2.986,0,4.438,0.239c8.396,1.452,10.705,5.075,8.096,13.293 c-4.076,12.875-12.06,23.625-19.84,34.391c-8.341,11.525-17.216,22.647-25.495,34.233 C331.087,237.201,331.683,242.535,341.098,251.727z"></path>
		</symbol>

		<symbol id="icon-painting" viewBox="0 0 455.005 455.005">
			<title>title</title>
			<path d="M447.505,0.002h-440c-4.142,0-7.5,3.357-7.5,7.5v320c0,4.143,3.358,7.5,7.5,7.5h47.894c4.142,0,7.5-3.357,7.5-7.5 s-3.358-7.5-7.5-7.5H15.005v-305h425v305h-237.69c-4.142,0-7.5,3.357-7.5,7.5s3.358,7.5,7.5,7.5h245.19c4.143,0,7.5-3.357,7.5-7.5 v-320C455.005,3.36,451.647,0.002,447.505,0.002z"></path>
			<path d="M415.005,47.502c0-4.143-3.357-7.5-7.5-7.5h-360c-4.142,0-7.5,3.357-7.5,7.5v240c0,4.143,3.358,7.5,7.5,7.5h46.448 c4.142,0,7.5-3.357,7.5-7.5s-3.358-7.5-7.5-7.5H55.005v-225h345v32.5c0,4.143,3.357,7.5,7.5,7.5s7.5-3.357,7.5-7.5V47.502z"></path>
			<path d="M407.505,110.002c-4.143,0-7.5,3.357-7.5,7.5v162.5h-156.19c-4.143,0-7.5,3.357-7.5,7.5s3.357,7.5,7.5,7.5h163.69 c4.143,0,7.5-3.357,7.5-7.5v-170C415.005,113.36,411.647,110.002,407.505,110.002z"></path>
			<path d="M180.616,317.167l55.105-53.113c45.63-8.938,73.061-47.091,82.747-77.503c6.605-20.741,5.409-38.264-3.2-46.874 c-8.604-8.602-26.107-9.799-46.825-3.202c-30.434,9.692-68.616,37.157-77.533,82.855L8.049,409.048 c-10.563,10.813-10.754,28.011-0.428,38.338c4.912,4.911,11.544,7.616,18.676,7.616c7.369,0,14.351-2.857,19.625-8.01 l134.585-129.72c0.025-0.024,0.052-0.045,0.077-0.069C180.595,317.192,180.605,317.179,180.616,317.167z M175.374,301.386 l-21.753-21.753l43.912-45.559l23.4,23.4L175.374,301.386z M272.995,150.767c16.007-5.098,28.047-4.102,31.666-0.482 c3.624,3.624,4.621,15.681-0.485,31.714c-8.361,26.253-31.729,59.109-70.357,67.149l-8.689-8.689l31.833-31.802 c2.931-2.927,2.933-7.676,0.005-10.606c-2.928-2.93-7.677-2.933-10.606-0.005l-31.838,31.807l-8.692-8.692 C213.875,182.507,246.738,159.13,272.995,150.767z M35.476,436.228c-2.492,2.434-5.751,3.774-9.179,3.774 c-3.125,0-5.991-1.145-8.069-3.224c-4.469-4.469-4.216-12.367,0.586-17.284l124.395-129.06l21.363,21.363L35.476,436.228z"></path>
		</symbol>

		<symbol id="icon-gift" viewBox="0 0 64 64">
			<title>title</title>
			<path id="Gifts-shopping_2_" d="M63,12.4253502h-7.7413025V7.6333499c0-2.1953001-1.7860985-3.9814999-3.982399-3.9814999 h-5.9628868c-2.196312,0-3.9824104,1.7861998-3.9824104,3.9814999v4.7920003h-8.1494026c-0.5527,0-1,0.4471998-1,1v13.1161995 h-9.1352978c1.7437-0.7551994,4.2431984-1.9615993,5.3227997-3.0849991 c1.2803116-1.3330002,1.2803116-3.5039005-0.0010014-4.8397999c-1.2655983-1.3155003-3.4930992-1.3184013-4.7587986,0.0008984 c-0.9890003,1.0292015-2.0458889,3.3068008-2.7727013,5.075201c-0.7230988-1.7360001-1.7364998-3.8810997-2.6861877-4.8710995 c-1.2667103-1.3183002-3.4961109-1.3173008-4.7598114-0.0009003c-1.2831879,1.3348999-1.2831879,3.5058002,0,4.8407993 c0.9861002,1.0254002,3.1609001,2.1216011,4.8598118,2.8799H1.0000008c-0.5528001,0-1,0.4472008-1,1v7.9510994 c0,0.5527992,0.4472,1,1,1h2.9755001v22.8554993c0,0.552803,0.4472997,1,0.9999998,1h31.8066998c0.5527,0,1-0.447197,1-1v-5.2433968 c0.1195984,0.0502968,0.2506981,0.0783997,0.3886986,0.0783997H63c0.5527,0,1-0.4473,1-1V13.4253502 C64,12.87255,63.5527,12.4253502,63,12.4253502z M43.3310013,7.6333499c0-1.0927997,0.889698-1.9814997,1.9824104-1.9814997 h5.9628868c1.0928001,0,1.9824028,0.8887,1.9824028,1.9814997v4.7920003h-9.9277V7.6333499z M35.7821999,45.4262505H21.8789005 v-8.9336014h13.9032993V45.4262505z M21.8789005,34.4926491v-5.9510994h17.8789005v5.9510994H21.8789005z M25.0506992,20.0034504 c0.2530003-0.262701,0.5860004-0.4071999,0.9375-0.4071999c0.3526001,0,0.6856003,0.1444988,0.9375,0.4062004 c0.5479012,0.5702991,0.5479012,1.4989986,0.0010014,2.0692997c-0.7362881,0.7656994-2.6445007,1.7294998-4.2685013,2.4531994 C23.3593006,22.8169498,24.3027,20.7827492,25.0506992,20.0034504z M14.8330002,20.2065506 c0.2519007-0.262701,0.5848999-0.4071999,0.9375-0.4071999c0.3514996,0,0.6844997,0.1444988,0.9365005,0.4071999 c0.7479992,0.7792988,1.691412,2.8134995,2.3925991,4.5214996c-1.6240997-0.7236004-3.5312996-1.6875-4.2675991-2.4531002 C14.2841005,21.7055492,14.2841005,20.7768497,14.8330002,20.2065506z M2.0000007,28.5415497h17.8789005v5.9510994H2.0000007 V28.5415497z M19.8789005,36.4926491v8.9336014H5.9755006v-8.9336014H19.8789005z M5.9755006,47.4262505h13.9034004v10.9218979 H5.9755006V47.4262505z M21.8789005,58.3481483V47.4262505h13.9032993v10.9218979H21.8789005z M62,52.1831512H38.1708984 c-0.1380005,0-0.2691002,0.0278969-0.3886986,0.0783005V36.4926491h2.9756012c0.5527,0,1-0.4472008,1-1v-7.9510994 c0-0.5527992-0.4473-1-1-1h-6.5762024V14.4253502h7.1494026v1.9939003 c-0.2749023,0.2705994-0.4463005,0.6462002-0.4463005,1.0627003c0,0.8227997,0.6674995,1.4903984,1.4902992,1.4903984 c0.8238983,0,1.4916992-0.6675987,1.4916992-1.4903984c0-0.4580002-0.210701-0.8625011-0.5356979-1.1362v-1.9204006h9.9277 v1.9237003c-0.3227005,0.2734985-0.5322037,0.6766987-0.5322037,1.1329002c0,0.8227997,0.6690025,1.4903984,1.491703,1.4903984 c0.8224983,0,1.4902992-0.6675987,1.4902992-1.4903984c0-0.4180012-0.1729012-0.7947006-0.4498024-1.0654011v-1.9911995H62 V52.1831512z"></path>
		</symbol>

		<symbol id="icon-landscape" viewBox="0 0 52.75 52.75">
			<title>title</title>
			<path d="M6.396,43.904h39.958c0.345,0,0.625-0.28,0.625-0.625V9.468c0-0.345-0.28-0.625-0.625-0.625H6.396 c-0.345,0-0.625,0.28-0.625,0.625v33.812C5.771,43.624,6.052,43.904,6.396,43.904z M7.021,10.093h38.708v32.562H7.021V10.093z"></path>
			<path d="M18.412,24.607c2.416,0,4.381-1.965,4.381-4.381s-1.965-4.381-4.381-4.381c-2.417,0-4.383,1.965-4.383,4.381 S15.995,24.607,18.412,24.607z M18.412,17.095c1.727,0,3.131,1.404,3.131,3.131s-1.404,3.131-3.131,3.131s-3.133-1.404-3.133-3.131 S16.684,17.095,18.412,17.095z"></path>
			<path d="M38.352,19.601H27.209c-0.292,0-0.542,0.199-0.608,0.485l-1.938,8.395h-10.26c-0.289,0-0.539,0.194-0.607,0.476 l-2.049,8.323c-0.046,0.185-0.003,0.384,0.115,0.535c0.119,0.152,0.299,0.24,0.492,0.24h28.044c0.18,0,0.351-0.076,0.47-0.211 c0.118-0.133,0.173-0.312,0.151-0.488l-2.047-17.203C38.936,19.838,38.669,19.601,38.352,19.601z M13.149,36.805l1.741-7.074 h10.268c0.293,0,0.544-0.199,0.61-0.483l1.939-8.395h10.09l1.898,15.953H13.149L13.149,36.805z"></path>
			<path d="M52.125,3h-51.5C0.28,3,0,3.28,0,3.625v45.5c0,0.346,0.28,0.625,0.625,0.625h51.5c0.346,0,0.625-0.279,0.625-0.625v-45.5 C52.75,3.28,52.471,3,52.125,3z M51.5,48.5H1.25V4.25H51.5V48.5z"></path>
		</symbol>

		<symbol id="icon-phone" viewBox="0 0 22 28">
			<title>phone</title>
			<path d="M22 19.375c0 0.562-0.25 1.656-0.484 2.172-0.328 0.766-1.203 1.266-1.906 1.656-0.922 0.5-1.859 0.797-2.906 0.797-1.453 0-2.766-0.594-4.094-1.078-0.953-0.344-1.875-0.766-2.734-1.297-2.656-1.641-5.859-4.844-7.5-7.5-0.531-0.859-0.953-1.781-1.297-2.734-0.484-1.328-1.078-2.641-1.078-4.094 0-1.047 0.297-1.984 0.797-2.906 0.391-0.703 0.891-1.578 1.656-1.906 0.516-0.234 1.609-0.484 2.172-0.484 0.109 0 0.219 0 0.328 0.047 0.328 0.109 0.672 0.875 0.828 1.188 0.5 0.891 0.984 1.797 1.5 2.672 0.25 0.406 0.719 0.906 0.719 1.391 0 0.953-2.828 2.344-2.828 3.187 0 0.422 0.391 0.969 0.609 1.344 1.578 2.844 3.547 4.813 6.391 6.391 0.375 0.219 0.922 0.609 1.344 0.609 0.844 0 2.234-2.828 3.187-2.828 0.484 0 0.984 0.469 1.391 0.719 0.875 0.516 1.781 1 2.672 1.5 0.313 0.156 1.078 0.5 1.188 0.828 0.047 0.109 0.047 0.219 0.047 0.328z"></path>
		</symbol>

		<symbol id="icon-envelope" viewBox="0 0 28 28">
			<title>envelope</title>
			<path d="M28 11.094v12.406c0 1.375-1.125 2.5-2.5 2.5h-23c-1.375 0-2.5-1.125-2.5-2.5v-12.406c0.469 0.516 1 0.969 1.578 1.359 2.594 1.766 5.219 3.531 7.766 5.391 1.313 0.969 2.938 2.156 4.641 2.156h0.031c1.703 0 3.328-1.188 4.641-2.156 2.547-1.844 5.172-3.625 7.781-5.391 0.562-0.391 1.094-0.844 1.563-1.359zM28 6.5c0 1.75-1.297 3.328-2.672 4.281-2.438 1.687-4.891 3.375-7.313 5.078-1.016 0.703-2.734 2.141-4 2.141h-0.031c-1.266 0-2.984-1.437-4-2.141-2.422-1.703-4.875-3.391-7.297-5.078-1.109-0.75-2.688-2.516-2.688-3.938 0-1.531 0.828-2.844 2.5-2.844h23c1.359 0 2.5 1.125 2.5 2.5z"></path>
		</symbol>

		<symbol id="icon-marker" viewBox="0 0 16 28">
			<title>map-marker</title>
			<path d="M12 10c0-2.203-1.797-4-4-4s-4 1.797-4 4 1.797 4 4 4 4-1.797 4-4zM16 10c0 0.953-0.109 1.937-0.516 2.797l-5.688 12.094c-0.328 0.688-1.047 1.109-1.797 1.109s-1.469-0.422-1.781-1.109l-5.703-12.094c-0.406-0.859-0.516-1.844-0.516-2.797 0-4.422 3.578-8 8-8s8 3.578 8 8z"></path>
		</symbol>

		<symbol id="icon-twitter" viewBox="0 0 455.731 455.731">
			<title>title</title>
			<path d="M0,0v455.731h455.731V0H0z M361.271,163.944c0.104,2.676,0.161,5.362,0.161,8.067c0,108.339-87.831,196.18-196.18,196.18 c-38.568,0-74.545-11.132-104.875-30.368c-0.007-0.001-0.014-0.002-0.02-0.003l0.02,0.003c0,0,0,0,0,0 c59.293,8.843,101.06-28.888,101.06-28.888c-52.832-4.109-63.271-48.077-63.271-48.077c18.667,3.16,30.368-1.272,30.368-1.272 c-59.465-13.912-54.407-68.329-54.407-68.329c13.77,8.228,29.733,8.864,29.733,8.864c-52.509-46.188-19.607-91.105-19.607-91.105 c55.052,66.668,135.975,71.204,141.289,71.423c-1.167-5.011-1.784-10.23-1.784-15.592c0-37.998,30.814-68.803,68.841-68.803 c19.825,0,37.685,8.37,50.25,21.78c3.483-0.977,6.861-2.031,10.088-3.103c19.493-6.501,33.415-13.932,33.415-13.932 c-3.359,20.129-28.176,37.021-29.951,38.207c-0.066,0.047-0.104,0.066-0.104,0.066c0.038,0,0.085-0.009,0.123-0.009 c19.265-1.927,38.948-10.107,38.948-10.107C389.428,141.433,365.19,160.859,361.271,163.944z"></path>
		</symbol>

		<symbol id="icon-google" viewBox="0 0 455.73 455.73">
			<title>title</title>
			<path d="M0,0v455.73h455.73V0H0z M265.67,247.037c-7.793,51.194-45.961,80.543-95.376,80.543 c-55.531,0-100.552-45.021-100.552-100.552c0-55.517,45.021-100.538,100.552-100.538c26.862,0,50.399,9.586,67.531,26.226 l-28.857,28.857c-9.773-9.846-23.147-15.094-38.674-15.094c-32.688,0-59.189,27.874-59.189,60.548 c0,32.703,26.501,59.768,59.189,59.768c27.397,0,48.144-13.243,54.129-39.758h-54.129v-40.38h95.131 c1.142,6.506,1.72,13.315,1.72,20.37C267.144,234.025,266.638,240.69,265.67,247.037z M386.419,234.517h-35.233v35.218H326.16 v-35.218h-35.233v-25.041h35.233v-35.233h25.026v35.233h35.233V234.517z"></path>
		</symbol>

		<symbol id="icon-facebook2" viewBox="0 0 455.73 455.73">
			<title>title</title>
			<path d="M0,0v455.73h242.704V279.691h-59.33v-71.864h59.33v-60.353c0-43.893,35.582-79.475,79.475-79.475h62.025v64.622h-44.382 c-13.947,0-25.254,11.307-25.254,25.254v49.953h68.521l-9.47,71.864h-59.051V455.73H455.73V0H0z"></path>
		</symbol>

		<symbol id="icon-eye" viewBox="0 0 28 28">
			<title>eye</title>
			<path d="M26 15c-1.484-2.297-3.516-4.266-5.953-5.516 0.625 1.062 0.953 2.281 0.953 3.516 0 3.859-3.141 7-7 7s-7-3.141-7-7c0-1.234 0.328-2.453 0.953-3.516-2.438 1.25-4.469 3.219-5.953 5.516 2.672 4.125 6.984 7 12 7s9.328-2.875 12-7zM14.75 9c0-0.406-0.344-0.75-0.75-0.75-2.609 0-4.75 2.141-4.75 4.75 0 0.406 0.344 0.75 0.75 0.75s0.75-0.344 0.75-0.75c0-1.781 1.469-3.25 3.25-3.25 0.406 0 0.75-0.344 0.75-0.75zM28 15c0 0.391-0.125 0.75-0.313 1.078-2.875 4.734-8.141 7.922-13.687 7.922s-10.813-3.203-13.687-7.922c-0.187-0.328-0.313-0.688-0.313-1.078s0.125-0.75 0.313-1.078c2.875-4.719 8.141-7.922 13.687-7.922s10.813 3.203 13.687 7.922c0.187 0.328 0.313 0.688 0.313 1.078z"></path>
		</symbol>

		<symbol id="icon-calendar" viewBox="0 0 26 28">
			<title>calendar</title>
			<path d="M2 26h4.5v-4.5h-4.5v4.5zM7.5 26h5v-4.5h-5v4.5zM2 20.5h4.5v-5h-4.5v5zM7.5 20.5h5v-5h-5v5zM2 14.5h4.5v-4.5h-4.5v4.5zM13.5 26h5v-4.5h-5v4.5zM7.5 14.5h5v-4.5h-5v4.5zM19.5 26h4.5v-4.5h-4.5v4.5zM13.5 20.5h5v-5h-5v5zM8 7v-4.5c0-0.266-0.234-0.5-0.5-0.5h-1c-0.266 0-0.5 0.234-0.5 0.5v4.5c0 0.266 0.234 0.5 0.5 0.5h1c0.266 0 0.5-0.234 0.5-0.5zM19.5 20.5h4.5v-5h-4.5v5zM13.5 14.5h5v-4.5h-5v4.5zM19.5 14.5h4.5v-4.5h-4.5v4.5zM20 7v-4.5c0-0.266-0.234-0.5-0.5-0.5h-1c-0.266 0-0.5 0.234-0.5 0.5v4.5c0 0.266 0.234 0.5 0.5 0.5h1c0.266 0 0.5-0.234 0.5-0.5zM26 6v20c0 1.094-0.906 2-2 2h-22c-1.094 0-2-0.906-2-2v-20c0-1.094 0.906-2 2-2h2v-1.5c0-1.375 1.125-2.5 2.5-2.5h1c1.375 0 2.5 1.125 2.5 2.5v1.5h6v-1.5c0-1.375 1.125-2.5 2.5-2.5h1c1.375 0 2.5 1.125 2.5 2.5v1.5h2c1.094 0 2 0.906 2 2z"></path>
		</symbol>

		<symbol id="icon-pencil" viewBox="0 0 24 28">
			<title>pencil</title>
			<path d="M5.672 24l1.422-1.422-3.672-3.672-1.422 1.422v1.672h2v2h1.672zM13.844 9.5c0-0.203-0.141-0.344-0.344-0.344-0.094 0-0.187 0.031-0.266 0.109l-8.469 8.469c-0.078 0.078-0.109 0.172-0.109 0.266 0 0.203 0.141 0.344 0.344 0.344 0.094 0 0.187-0.031 0.266-0.109l8.469-8.469c0.078-0.078 0.109-0.172 0.109-0.266zM13 6.5l6.5 6.5-13 13h-6.5v-6.5zM23.672 8c0 0.531-0.219 1.047-0.578 1.406l-2.594 2.594-6.5-6.5 2.594-2.578c0.359-0.375 0.875-0.594 1.406-0.594s1.047 0.219 1.422 0.594l3.672 3.656c0.359 0.375 0.578 0.891 0.578 1.422z"></path>
		</symbol>

		<symbol id="icon-location" viewBox="0 0 16 28">
			<title>map-marker</title>
			<path d="M12 10c0-2.203-1.797-4-4-4s-4 1.797-4 4 1.797 4 4 4 4-1.797 4-4zM16 10c0 0.953-0.109 1.937-0.516 2.797l-5.688 12.094c-0.328 0.688-1.047 1.109-1.797 1.109s-1.469-0.422-1.781-1.109l-5.703-12.094c-0.406-0.859-0.516-1.844-0.516-2.797 0-4.422 3.578-8 8-8s8 3.578 8 8z"></path>
		</symbol>

		<symbol id="icon-phone" viewBox="0 0 22 28">
			<title>phone</title>
			<path d="M22 19.375c0 0.562-0.25 1.656-0.484 2.172-0.328 0.766-1.203 1.266-1.906 1.656-0.922 0.5-1.859 0.797-2.906 0.797-1.453 0-2.766-0.594-4.094-1.078-0.953-0.344-1.875-0.766-2.734-1.297-2.656-1.641-5.859-4.844-7.5-7.5-0.531-0.859-0.953-1.781-1.297-2.734-0.484-1.328-1.078-2.641-1.078-4.094 0-1.047 0.297-1.984 0.797-2.906 0.391-0.703 0.891-1.578 1.656-1.906 0.516-0.234 1.609-0.484 2.172-0.484 0.109 0 0.219 0 0.328 0.047 0.328 0.109 0.672 0.875 0.828 1.188 0.5 0.891 0.984 1.797 1.5 2.672 0.25 0.406 0.719 0.906 0.719 1.391 0 0.953-2.828 2.344-2.828 3.187 0 0.422 0.391 0.969 0.609 1.344 1.578 2.844 3.547 4.813 6.391 6.391 0.375 0.219 0.922 0.609 1.344 0.609 0.844 0 2.234-2.828 3.187-2.828 0.484 0 0.984 0.469 1.391 0.719 0.875 0.516 1.781 1 2.672 1.5 0.313 0.156 1.078 0.5 1.188 0.828 0.047 0.109 0.047 0.219 0.047 0.328z"></path>
		</symbol>

		<symbol id="icon-mail" viewBox="0 0 28 28">
			<title>envelope</title>
			<path d="M28 11.094v12.406c0 1.375-1.125 2.5-2.5 2.5h-23c-1.375 0-2.5-1.125-2.5-2.5v-12.406c0.469 0.516 1 0.969 1.578 1.359 2.594 1.766 5.219 3.531 7.766 5.391 1.313 0.969 2.938 2.156 4.641 2.156h0.031c1.703 0 3.328-1.188 4.641-2.156 2.547-1.844 5.172-3.625 7.781-5.391 0.562-0.391 1.094-0.844 1.563-1.359zM28 6.5c0 1.75-1.297 3.328-2.672 4.281-2.438 1.687-4.891 3.375-7.313 5.078-1.016 0.703-2.734 2.141-4 2.141h-0.031c-1.266 0-2.984-1.437-4-2.141-2.422-1.703-4.875-3.391-7.297-5.078-1.109-0.75-2.688-2.516-2.688-3.938 0-1.531 0.828-2.844 2.5-2.844h23c1.359 0 2.5 1.125 2.5 2.5z"></path>
		</symbol>

		<symbol id="icon-card" viewBox="0 0 512 512">
			<title>title</title>
			<path d="M486.4,115.2H364.092C341.376,79.369,301.474,55.467,256,55.467S170.624,79.369,147.908,115.2H25.6 C11.486,115.2,0,126.686,0,140.8v290.133c0,14.114,11.486,25.6,25.6,25.6h460.8c14.114,0,25.6-11.486,25.6-25.6V140.8 C512,126.686,500.514,115.2,486.4,115.2z M256,72.533c61.167,0,110.933,49.766,110.933,110.933S317.167,294.4,256,294.4 s-110.933-49.766-110.933-110.933S194.833,72.533,256,72.533z M17.067,140.8c0-4.702,3.823-8.533,8.533-8.533h113.161 c-3.567,8.141-6.366,16.691-8.183,25.6H17.067V140.8z M17.067,174.933h111.369c-0.188,2.833-0.435,5.649-0.435,8.533 c0,14.976,2.722,29.295,7.467,42.667h-118.4V174.933z M494.933,430.933c0,4.702-3.823,8.533-8.533,8.533H25.6 c-4.71,0-8.533-3.831-8.533-8.533V243.2h125.815c21.504,40.55,64.111,68.267,113.118,68.267 c49.007,0,91.622-27.716,113.118-68.267h125.815V430.933z M494.933,226.133h-118.4c4.745-13.372,7.467-27.691,7.467-42.667 c0-2.884-0.247-5.7-0.435-8.533h111.369V226.133z M494.933,157.867h-113.51c-1.818-8.909-4.608-17.459-8.183-25.6H486.4 c4.71,0,8.533,3.831,8.533,8.533V157.867z"></path>
			<path d="M426.667,328.533c-11.273,0-21.982,4.506-29.867,12.211c-7.885-7.706-18.594-12.211-29.867-12.211 c-23.526,0-42.667,19.14-42.667,42.667s19.14,42.667,42.667,42.667c11.273,0,21.982-4.506,29.867-12.211 c7.885,7.706,18.594,12.211,29.867,12.211c23.526,0,42.667-19.14,42.667-42.667S450.193,328.533,426.667,328.533z M426.667,396.8 c-9.114,0-17.613-4.907-22.187-12.809c-1.527-2.645-4.924-4.258-7.979-4.258c-0.043,0-0.085,0-0.119,0 c-3.012,0.043-5.769,1.664-7.27,4.267c-4.565,7.893-13.065,12.8-22.178,12.8c-14.114,0-25.6-11.486-25.6-25.6 s11.486-25.6,25.6-25.6c9.105,0,17.604,4.907,22.178,12.8c1.604,2.773,4.386,4.241,7.509,4.258c3.14,0.213,6.212-1.365,7.868-4.25 c4.565-7.893,13.065-12.8,22.187-12.8c14.114,0,25.6,11.486,25.6,25.6S440.781,396.8,426.667,396.8z"></path>
			<path d="M281.6,345.6h-85.333c-4.719,0-8.533,3.823-8.533,8.533v34.133c0,4.71,3.814,8.533,8.533,8.533H281.6 c4.719,0,8.533-3.823,8.533-8.533v-34.133C290.133,349.423,286.319,345.6,281.6,345.6z M273.067,379.733H204.8v-17.067h68.267 V379.733z"></path>
			<path d="M145.067,345.6H59.733c-4.719,0-8.533,3.823-8.533,8.533v34.133c0,4.71,3.814,8.533,8.533,8.533h85.333 c4.719,0,8.533-3.823,8.533-8.533v-34.133C153.6,349.423,149.786,345.6,145.067,345.6z M136.533,379.733H68.267v-17.067h68.267 V379.733z"></path>
			<path d="M338.833,143.3l-25.6-25.6c-3.337-3.336-8.73-3.336-12.066,0L230.4,188.467L210.833,168.9 c-3.337-3.337-8.73-3.337-12.066,0l-25.6,25.6c-3.337,3.337-3.337,8.73,0,12.066l51.2,51.2c1.664,1.664,3.849,2.5,6.033,2.5 c2.185,0,4.369-0.836,6.033-2.5l102.4-102.4C342.17,152.03,342.17,146.637,338.833,143.3z M230.4,239.667l-39.134-39.134 l13.534-13.534l19.567,19.567c3.337,3.337,8.73,3.337,12.066,0l70.767-70.767l13.534,13.534L230.4,239.667z"></path>
		</symbol>

		<symbol id="icon-truck" viewBox="0 0 491.1 491.1">
			<title>title</title>
			<path transform="translate(0 -540.36)" d="M401.5,863.31c-12,0-23.4,4.7-32,13.2c-8.6,8.6-13.4,19.8-13.4,31.8s4.7,23.2,13.4,31.8 c8.7,8.5,20,13.2,32,13.2c24.6,0,44.6-20.2,44.6-45S426.1,863.31,401.5,863.31z M401.5,933.31c-13.8,0-25.4-11.4-25.4-25 s11.6-25,25.4-25c13.6,0,24.6,11.2,24.6,25S415.1,933.31,401.5,933.31z M413.1,713.41c-1.8-1.7-4.2-2.6-6.7-2.6h-51.3 c-5.5,0-10,4.5-10,10v82c0,5.5,4.5,10,10,10h81.4c5.5,0,10-4.5,10-10v-54.9c0-2.8-1.2-5.5-3.3-7.4L413.1,713.41z M426.5,792.81 h-61.4v-62.1h37.4l24,21.6V792.81z M157.3,863.31c-12,0-23.4,4.7-32,13.2c-8.6,8.6-13.4,19.8-13.4,31.8s4.7,23.2,13.4,31.8 c8.7,8.5,20,13.2,32,13.2c24.6,0,44.6-20.2,44.6-45S181.9,863.31,157.3,863.31z M157.3,933.31c-13.8,0-25.4-11.4-25.4-25 s11.6-25,25.4-25c13.6,0,24.6,11.2,24.6,25S170.9,933.31,157.3,933.31z M90.6,875.61H70.5v-26.6c0-5.5-4.5-10-10-10s-10,4.5-10,10 v36.6c0,5.5,4.5,10,10,10h30.1c5.5,0,10-4.5,10-10S96.1,875.61,90.6,875.61z M141.3,821.11c0-5.5-4.5-10-10-10H10 c-5.5,0-10,4.5-10,10s4.5,10,10,10h121.3C136.8,831.11,141.3,826.71,141.3,821.11z M30.3,785.01l121.3,0.7c5.5,0,10-4.4,10.1-9.9 c0.1-5.6-4.4-10.1-9.9-10.1l-121.3-0.7c-0.1,0-0.1,0-0.1,0c-5.5,0-10,4.4-10,9.9C20.3,780.51,24.8,785.01,30.3,785.01z M50.7,739.61 H172c5.5,0,10-4.5,10-10s-4.5-10-10-10H50.7c-5.5,0-10,4.5-10,10S45.2,739.61,50.7,739.61z M487.4,726.11L487.4,726.11l-71.6-59.3 c-1.8-1.5-4-2.3-6.4-2.3h-84.2v-36c0-5.5-4.5-10-10-10H60.5c-5.5,0-10,4.5-10,10v73.2c0,5.5,4.5,10,10,10s10-4.5,10-10v-63.2h234.8 v237.1h-82c-5.5,0-10,4.5-10,10s4.5,10,10,10h122.1c5.5,0,10-4.5,10-10s-4.5-10-10-10h-20.1v-191.1h80.6l65.2,54l-0.7,136.9H460 c-5.5,0-10,4.5-10,10s4.5,10,10,10h20.3c5.5,0,10-4.4,10-9.9l0.8-151.6C491,730.91,489.7,728.01,487.4,726.11z"/>
		</symbol>

		<symbol id="icon-russ" viewBox="0 0 512.001 512.001">
			<title>title</title>
			<rect x="0.833" y="496.379" width="510.335" height="15.622"/>
			<rect x="184.138" y="351.61" width="15.622" height="46.867"/>
			<rect x="57.074" y="398.478" width="15.622" height="47.909"/>
			<polygon points="88.523,215.566 88.339,231.188 119.564,231.554 119.564,279.746 135.187,279.746 135.187,231.739 143.427,231.836 143.611,216.215"></polygon>
			<path d="M98.712,344.319c8.338-8.592,13.485-20.297,13.485-33.187c0-11.264-7.17-24.799-21.919-41.376 c-6.905-7.761-13.737-14.184-17.581-17.652v-12.976h8.332v-15.622h-8.332v-8.332H57.075v8.332h-8.332v15.622h8.332v12.281 c-3.641,3.251-10.953,10.028-18.356,18.348c-14.75,16.576-21.919,30.111-21.919,41.376c0,12.891,5.148,24.595,13.485,33.187 H16.456v15.622h95.818v-15.624H98.712z M96.552,312.032H81.029v15.622H91.98c-5.62,9.312-15.835,15.554-27.482,15.554 c-11.647,0-21.862-6.241-27.482-15.554h35.681v-15.622H32.444c-0.008-0.3-0.023-0.599-0.023-0.901 c0-11.887,17.969-32.402,32.045-45.378c3.679,3.418,8.92,8.522,14.141,14.388c11.419,12.833,17.968,24.128,17.968,30.99 C96.575,311.432,96.56,311.731,96.552,312.032z"></path>
			<polygon points="151.851,319.323 151.851,334.945 160.183,334.945 160.183,399.518 135.187,399.518 135.187,383.896  119.564,383.896 119.564,399.518 95.61,399.518 95.61,383.896 104.983,383.896 104.983,368.273 24.788,368.273 24.788,383.896  32.078,383.896 32.078,485.963 47.701,485.963 47.701,478.672 199.76,478.672 199.76,463.049 47.701,463.049 47.701,383.896  79.987,383.896 79.987,415.141 175.805,415.141 175.805,334.945 207.05,334.945 207.05,485.963 222.673,485.963 222.673,334.945  232.046,334.945 232.046,319.323"></polygon>
			<path d="M239.84,263.266c0-11.265-7.17-24.799-21.919-41.376c-7.272-8.174-14.457-14.857-18.16-18.173V192.26h8.332v-15.622 h-8.332v-8.332h-15.622v8.332h-8.332v15.622h8.332v11.801c-3.807,3.427-10.759,9.942-17.776,17.829 c-14.75,16.576-21.919,30.11-21.919,41.376c-0.001,12.351,4.719,23.621,12.449,32.102h-13.373v15.622h95.818v-15.622h-11.948 C235.118,286.887,239.84,275.618,239.84,263.266z M224.195,264.122h-16.104v15.622h11.555 c-5.615,9.336-15.842,15.597-27.507,15.597s-21.893-6.26-27.507-15.597h35.127v-15.622h-39.675 c-0.007-0.285-0.022-0.57-0.022-0.857c0.001-11.887,17.97-32.403,32.045-45.378c3.679,3.418,8.92,8.521,14.141,14.387 c11.419,12.833,17.968,24.129,17.968,30.991C224.217,263.552,224.203,263.837,224.195,264.122z"></path>
			<path d="M481.7,272.455c8.301-8.587,13.424-20.264,13.424-33.123c0-11.265-7.17-24.799-21.919-41.376 c-7.35-8.261-14.61-15-18.277-18.277v-12.417h8.332V151.64h-8.332v-8.332h-15.622v8.332h-8.332v15.622h8.332v12.97 c-3.83,3.452-10.71,9.912-17.66,17.724c-14.75,16.577-21.919,30.11-21.919,41.376c0,12.858,5.123,24.536,13.424,33.123h-13.422 v15.622h95.818v-15.622H481.7z M475.543,254.75c-5.462,9.92-16.017,16.66-28.119,16.66s-22.658-6.74-28.119-16.66h35.621v-15.622 h-39.57c0.202-11.917,18.04-32.272,32.035-45.173c3.679,3.418,8.92,8.521,14.141,14.387c11.31,12.71,17.833,23.906,17.956,30.786 h-16.231v15.622H475.543z"></path>
			<path d="M147.039,192.26c8.064-8.547,13.024-20.053,13.024-32.703c0-11.264-7.17-24.799-21.919-41.376 c-7.552-8.488-15.018-15.378-18.579-18.547V88.11h8.332V72.487h-8.332v-8.332h-15.622v8.332h-7.29V88.11h7.29v12.621 c-3.881,3.511-10.581,9.833-17.358,17.45c-14.75,16.577-21.919,30.111-21.919,41.376c0,12.65,4.96,24.158,13.024,32.703H64.365 v15.622h96.859V192.26H147.039z M144.404,161.015h-8.176v15.622h3.266c-5.688,9.001-15.719,14.996-27.131,14.996 c-11.412,0-21.443-5.995-27.131-14.996h42.663v-15.622H80.324c-0.022-0.484-0.036-0.97-0.036-1.458 c0-11.887,17.969-32.402,32.045-45.378c3.679,3.418,8.92,8.522,14.141,14.388c11.419,12.833,17.968,24.128,17.968,30.99 C144.441,160.045,144.426,160.53,144.404,161.015z"></path>
			<rect x="264.334" y="239.128" width="15.622" height="40.618"></rect>
			<rect x="295.578" y="239.128" width="15.622" height="40.618"></rect>
			<rect x="254.96" y="295.369" width="144.768" height="15.622"></rect>
			<rect x="335.155" y="415.142" width="15.622" height="70.822"></rect>
			<rect x="360.151" y="448.47" width="15.622" height="15.622"></rect>
			<rect x="312.242" y="448.47" width="15.622" height="15.622"></rect>
			<rect x="438.264" y="326.614" width="15.622" height="47.909"></rect>
			<rect x="288.288" y="161.016" width="15.622" height="15.622"></rect>
			<rect x="88.32" y="429.723" width="15.622" height="16.664"></rect>
			<rect x="119.565" y="429.723" width="15.622" height="16.664"></rect>
			<rect x="151.852" y="429.723" width="15.622" height="16.664"></rect>
			<polygon points="407.018,295.368 407.018,310.991 414.308,310.991 414.308,351.609 407.018,351.609 407.018,326.613  391.395,326.613 391.395,351.609 374.731,351.609 374.731,326.613 359.109,326.613 359.109,351.609 342.445,351.609  342.445,326.613 326.822,326.613 326.822,351.609 311.2,351.609 311.2,326.613 295.578,326.613 295.578,351.609 279.955,351.609  279.955,326.613 264.333,326.613 264.333,351.609 232.046,351.609 232.046,367.232 429.931,367.232 429.931,310.991  463.259,310.991 463.259,485.963 478.881,485.963 478.881,310.991 487.213,310.991 487.213,295.368"></polygon>
			<path d="M415.348,463.049v-0.344c0-39.498-32.134-71.631-71.632-71.631c-39.498,0-71.632,32.133-71.632,71.631v0.344h-40.036 v15.622h40.036v7.966h15.622v-23.933c0-30.884,25.125-56.009,56.01-56.009c30.884,0,56.01,25.125,56.01,56.009v23.933h15.622 v-7.966h39.579v-15.622H415.348z"></path>
			<polygon points="342.445,248.501 342.445,223.505 350.777,223.505 350.777,207.882 239.337,207.882 239.337,223.505  326.822,223.505 326.822,264.123 392.437,264.123 392.437,248.501"></polygon>
			<path d="M340.081,183.928c16.668-13.127,27.401-33.469,27.401-56.282c0-16.623-11.421-37.602-33.945-62.352 c-12.324-13.542-24.498-24.393-29.875-29.022l0.004-12.734h8.576V7.914h-8.57l0.003-7.908L288.052,0l-0.003,7.914h-8.094v15.622 h8.088l-0.004,12.732c-5.376,4.628-17.552,15.48-29.878,29.024c-22.524,24.751-33.945,45.729-33.945,62.352 c0,22.814,10.734,43.155,27.401,56.282h-27.904v15.622h144.768v-15.622H340.081z M295.849,50.146 c17.995,15.745,51.171,49.025,55.523,72.595l-55.077-27.538l-53.839,20.191C251.174,92.68,279.657,64.315,295.849,50.146z  M244.185,149.267c-2.141-5.098-3.544-10.578-4.087-16.305l55.304-20.739l55.117,27.558c-0.955,4.306-2.398,8.43-4.284,12.303 L296.1,127.016L244.185,149.267z M295.849,183.655c-17.582,0-33.289-8.15-43.566-20.862l43.313-18.563l41.821,20.91 C327.16,176.501,312.326,183.655,295.849,183.655z"></path>
		</symbol>

		<symbol id="icon-dollar" viewBox="0 0 486.025 486.025">
			<title>title</title>
			<path d="M420.725,85.413c-42.1-42.1-98.1-65.3-157.6-65.3c-60.6,0-117.3,23.9-159.6,67.3c-4.6,4.7-4.5,12.3,0.2,17 c4.7,4.6,12.3,4.5,17-0.2c37.8-38.7,88.3-60,142.4-60c109.7-0.1,198.9,89.1,198.9,198.8s-89.2,198.9-198.9,198.9 s-198.8-89.2-198.8-198.9v-2.5l19.7,19.8c2.3,2.3,5.4,3.5,8.5,3.5s6.1-1.2,8.5-3.5c4.7-4.7,4.7-12.3,0-17l-40.2-40.3 c-4.7-4.7-12.3-4.7-17,0l-40.3,40.3c-4.7,4.7-4.7,12.3,0,17s12.3,4.7,17,0l19.8-19.8v2.5c0,59.5,23.2,115.5,65.3,157.6 s98.1,65.3,157.6,65.3s115.5-23.2,157.6-65.3c42-42.1,65.2-98.1,65.2-157.6S462.825,127.513,420.725,85.413z"></path>
			<path d="M263.125,103.613c-6.6,0-12,5.4-12,12v29.1h-7.6c-30.3,0-55,24.7-55,55s24.7,55,55,55h39.2c17.1,0,31,13.9,31,31 s-13.9,31-31,31h-70.5c-6.6,0-12,5.4-12,12s5.4,12,12,12h38.9v29.5c0,6.6,5.4,12,12,12s12-5.4,12-12v-29.5h8c0.1,0,0.2,0,0.3,0 c30-0.4,54.3-24.9,54.3-55c0-30.3-24.7-55-55-55h-39.2c-17.1,0-31-13.9-31-31s13.9-31,31-31h69.2c6.6,0,12-5.4,12-12 s-5.4-12-12-12h-37.6v-29.1C275.125,109.013,269.825,103.613,263.125,103.613z"></path>
		</symbol>

		<!-- <symbol id="icon-search" viewBox="">
			<title>title</title>
			
		</symbol> -->

	</defs>
</svg>